<mxfile host="app.diagrams.net" modified="2023-11-08T06:07:23.886Z" agent="Mozilla/5.0 (Windows NT 10.0; Win64; x64) AppleWebKit/537.36 (KHTML, like Gecko) Chrome/119.0.0.0 Safari/537.36" etag="aRFXDULSFWLCQVbvb2NH" version="22.0.8" type="gitlab">
  <diagram name="Page-1" id="03018318-947c-dd8e-b7a3-06fadd420f32">
    <mxGraphModel dx="1750" dy="1022" grid="1" gridSize="10" guides="1" tooltips="1" connect="1" arrows="1" fold="1" page="1" pageScale="1" pageWidth="1100" pageHeight="850" background="none" math="0" shadow="0">
      <root>
        <mxCell id="0" />
        <mxCell id="1" parent="0" />
        <mxCell id="ZukCDp1NpsssW5DUEXsI-14" value="LOGO" style="whiteSpace=wrap;html=1;rounded=0;shadow=0;labelBackgroundColor=none;strokeWidth=1;fontFamily=Verdana;fontSize=28;align=center;comic=1;" vertex="1" parent="1">
          <mxGeometry x="39" y="52" width="190" height="50" as="geometry" />
        </mxCell>
        <mxCell id="ZukCDp1NpsssW5DUEXsI-15" value="Home" style="text;html=1;points=[];align=left;verticalAlign=top;spacingTop=-4;fontSize=14;fontFamily=Verdana" vertex="1" parent="1">
          <mxGeometry x="329" y="67" width="60" height="20" as="geometry" />
        </mxCell>
        <mxCell id="ZukCDp1NpsssW5DUEXsI-16" value="Predict" style="text;html=1;points=[];align=left;verticalAlign=top;spacingTop=-4;fontSize=14;fontFamily=Verdana" vertex="1" parent="1">
          <mxGeometry x="449" y="67" width="60" height="20" as="geometry" />
        </mxCell>
        <mxCell id="ZukCDp1NpsssW5DUEXsI-17" value="" style="line;strokeWidth=1;html=1;rounded=0;shadow=0;labelBackgroundColor=none;fillColor=none;fontFamily=Verdana;fontSize=14;fontColor=#000000;align=center;comic=1;" vertex="1" parent="1">
          <mxGeometry y="152" width="1100" height="10" as="geometry" />
        </mxCell>
        <mxCell id="ZukCDp1NpsssW5DUEXsI-19" value="History" style="text;html=1;points=[];align=left;verticalAlign=top;spacingTop=-4;fontSize=14;fontFamily=Verdana" vertex="1" parent="1">
          <mxGeometry x="589" y="67" width="60" height="20" as="geometry" />
        </mxCell>
        <mxCell id="ZukCDp1NpsssW5DUEXsI-20" value="About us" style="text;html=1;points=[];align=left;verticalAlign=top;spacingTop=-4;fontSize=14;fontFamily=Verdana" vertex="1" parent="1">
          <mxGeometry x="729" y="67" width="60" height="20" as="geometry" />
        </mxCell>
        <mxCell id="ZukCDp1NpsssW5DUEXsI-21" value="" style="verticalLabelPosition=bottom;shadow=0;dashed=0;align=center;html=1;verticalAlign=top;strokeWidth=1;shape=mxgraph.mockup.containers.userMale;strokeColor=#666666;strokeColor2=#008cff;" vertex="1" parent="1">
          <mxGeometry x="889" y="40" width="80" height="80" as="geometry" />
        </mxCell>
        <mxCell id="ZukCDp1NpsssW5DUEXsI-22" value="" style="group" vertex="1" connectable="0" parent="1">
          <mxGeometry x="992" y="64" width="90" height="26" as="geometry" />
        </mxCell>
        <mxCell id="ZukCDp1NpsssW5DUEXsI-23" value="" style="rounded=1;whiteSpace=wrap;html=1;" vertex="1" parent="ZukCDp1NpsssW5DUEXsI-22">
          <mxGeometry width="90" height="26" as="geometry" />
        </mxCell>
        <mxCell id="ZukCDp1NpsssW5DUEXsI-24" value="Log Out" style="text;html=1;points=[];align=left;verticalAlign=top;spacingTop=-4;fontSize=14;fontFamily=Verdana" vertex="1" parent="ZukCDp1NpsssW5DUEXsI-22">
          <mxGeometry x="15" width="60" height="20" as="geometry" />
        </mxCell>
        <mxCell id="ZukCDp1NpsssW5DUEXsI-25" value="" style="line;strokeWidth=1;html=1;rounded=0;shadow=0;labelBackgroundColor=none;fillColor=none;fontFamily=Verdana;fontSize=14;fontColor=#000000;align=center;comic=1;" vertex="1" parent="1">
          <mxGeometry y="762" width="1100" height="10" as="geometry" />
        </mxCell>
        <mxCell id="ZukCDp1NpsssW5DUEXsI-26" value="Copyright&amp;nbsp;&amp;nbsp;Â© 2023. Ryan Yeo. All Rights Reserved" style="text;html=1;align=center;verticalAlign=middle;resizable=0;points=[];autosize=1;strokeColor=none;fillColor=none;" vertex="1" parent="1">
          <mxGeometry x="71" y="792" width="290" height="30" as="geometry" />
        </mxCell>
        <mxCell id="ZukCDp1NpsssW5DUEXsI-48" value="&lt;b&gt;&lt;font style=&quot;font-size: 20px;&quot;&gt;History of Predictions&lt;/font&gt;&lt;/b&gt;" style="text;html=1;points=[];align=center;verticalAlign=top;spacingTop=-4;fontSize=14;fontFamily=Verdana" vertex="1" parent="1">
          <mxGeometry x="320" y="200" width="420" height="20" as="geometry" />
        </mxCell>
        <mxCell id="ZukCDp1NpsssW5DUEXsI-27" value="Assets" style="childLayout=tableLayout;recursiveResize=0;strokeColor=#98bf21;fillColor=#A7C942;shadow=1;" vertex="1" parent="1">
          <mxGeometry x="14" y="270" width="1071.33" height="452" as="geometry" />
        </mxCell>
        <mxCell id="ZukCDp1NpsssW5DUEXsI-28" style="shape=tableRow;horizontal=0;startSize=0;swimlaneHead=0;swimlaneBody=0;top=0;left=0;bottom=0;right=0;dropTarget=0;collapsible=0;recursiveResize=0;expand=0;fontStyle=0;strokeColor=inherit;fillColor=#ffffff;" vertex="1" parent="ZukCDp1NpsssW5DUEXsI-27">
          <mxGeometry width="1071.33" height="58" as="geometry" />
        </mxCell>
        <mxCell id="ZukCDp1NpsssW5DUEXsI-29" value="Car Brand" style="connectable=0;recursiveResize=0;strokeColor=inherit;fillColor=#A7C942;align=center;fontStyle=1;fontColor=#FFFFFF;html=1;" vertex="1" parent="ZukCDp1NpsssW5DUEXsI-28">
          <mxGeometry width="107" height="58" as="geometry">
            <mxRectangle width="107" height="58" as="alternateBounds" />
          </mxGeometry>
        </mxCell>
        <mxCell id="ZukCDp1NpsssW5DUEXsI-30" value="Car Model" style="connectable=0;recursiveResize=0;strokeColor=inherit;fillColor=#A7C942;align=center;fontStyle=1;fontColor=#FFFFFF;html=1;" vertex="1" parent="ZukCDp1NpsssW5DUEXsI-28">
          <mxGeometry x="107" width="108" height="58" as="geometry">
            <mxRectangle width="108" height="58" as="alternateBounds" />
          </mxGeometry>
        </mxCell>
        <mxCell id="ZukCDp1NpsssW5DUEXsI-31" value="Registration Year" style="connectable=0;recursiveResize=0;strokeColor=inherit;fillColor=#A7C942;align=center;fontStyle=1;fontColor=#FFFFFF;html=1;" vertex="1" parent="ZukCDp1NpsssW5DUEXsI-28">
          <mxGeometry x="215" width="107" height="58" as="geometry">
            <mxRectangle width="107" height="58" as="alternateBounds" />
          </mxGeometry>
        </mxCell>
        <mxCell id="ZukCDp1NpsssW5DUEXsI-151" value="Gearbox Type" style="connectable=0;recursiveResize=0;strokeColor=inherit;fillColor=#A7C942;align=center;fontStyle=1;fontColor=#FFFFFF;html=1;" vertex="1" parent="ZukCDp1NpsssW5DUEXsI-28">
          <mxGeometry x="322" width="107" height="58" as="geometry">
            <mxRectangle width="107" height="58" as="alternateBounds" />
          </mxGeometry>
        </mxCell>
        <mxCell id="ZukCDp1NpsssW5DUEXsI-146" value="Mileage" style="connectable=0;recursiveResize=0;strokeColor=inherit;fillColor=#A7C942;align=center;fontStyle=1;fontColor=#FFFFFF;html=1;" vertex="1" parent="ZukCDp1NpsssW5DUEXsI-28">
          <mxGeometry x="429" width="107" height="58" as="geometry">
            <mxRectangle width="107" height="58" as="alternateBounds" />
          </mxGeometry>
        </mxCell>
        <mxCell id="ZukCDp1NpsssW5DUEXsI-141" value="Engine Fuel Type" style="connectable=0;recursiveResize=0;strokeColor=inherit;fillColor=#A7C942;align=center;fontStyle=1;fontColor=#FFFFFF;html=1;" vertex="1" parent="ZukCDp1NpsssW5DUEXsI-28">
          <mxGeometry x="536" width="107" height="58" as="geometry">
            <mxRectangle width="107" height="58" as="alternateBounds" />
          </mxGeometry>
        </mxCell>
        <mxCell id="ZukCDp1NpsssW5DUEXsI-136" value="Road Tax" style="connectable=0;recursiveResize=0;strokeColor=inherit;fillColor=#A7C942;align=center;fontStyle=1;fontColor=#FFFFFF;html=1;" vertex="1" parent="ZukCDp1NpsssW5DUEXsI-28">
          <mxGeometry x="643" width="107" height="58" as="geometry">
            <mxRectangle width="107" height="58" as="alternateBounds" />
          </mxGeometry>
        </mxCell>
        <mxCell id="ZukCDp1NpsssW5DUEXsI-131" value="Miles Per Gallon" style="connectable=0;recursiveResize=0;strokeColor=inherit;fillColor=#A7C942;align=center;fontStyle=1;fontColor=#FFFFFF;html=1;" vertex="1" parent="ZukCDp1NpsssW5DUEXsI-28">
          <mxGeometry x="750" width="107" height="58" as="geometry">
            <mxRectangle width="107" height="58" as="alternateBounds" />
          </mxGeometry>
        </mxCell>
        <mxCell id="ZukCDp1NpsssW5DUEXsI-126" value="Engine Size" style="connectable=0;recursiveResize=0;strokeColor=inherit;fillColor=#A7C942;align=center;fontStyle=1;fontColor=#FFFFFF;html=1;" vertex="1" parent="ZukCDp1NpsssW5DUEXsI-28">
          <mxGeometry x="857" width="107" height="58" as="geometry">
            <mxRectangle width="107" height="58" as="alternateBounds" />
          </mxGeometry>
        </mxCell>
        <mxCell id="ZukCDp1NpsssW5DUEXsI-121" value="Price" style="connectable=0;recursiveResize=0;strokeColor=inherit;fillColor=#A7C942;align=center;fontStyle=1;fontColor=#FFFFFF;html=1;" vertex="1" parent="ZukCDp1NpsssW5DUEXsI-28">
          <mxGeometry x="964" width="107" height="58" as="geometry">
            <mxRectangle width="107" height="58" as="alternateBounds" />
          </mxGeometry>
        </mxCell>
        <mxCell id="ZukCDp1NpsssW5DUEXsI-32" value="" style="shape=tableRow;horizontal=0;startSize=0;swimlaneHead=0;swimlaneBody=0;top=0;left=0;bottom=0;right=0;dropTarget=0;collapsible=0;recursiveResize=0;expand=0;fontStyle=0;strokeColor=inherit;fillColor=#ffffff;" vertex="1" parent="ZukCDp1NpsssW5DUEXsI-27">
          <mxGeometry y="58" width="1071.33" height="102" as="geometry" />
        </mxCell>
        <mxCell id="ZukCDp1NpsssW5DUEXsI-33" value="Value 1" style="connectable=0;recursiveResize=0;strokeColor=inherit;fillColor=inherit;align=center;whiteSpace=wrap;html=1;" vertex="1" parent="ZukCDp1NpsssW5DUEXsI-32">
          <mxGeometry width="107" height="102" as="geometry">
            <mxRectangle width="107" height="102" as="alternateBounds" />
          </mxGeometry>
        </mxCell>
        <mxCell id="ZukCDp1NpsssW5DUEXsI-34" value="Value 2" style="connectable=0;recursiveResize=0;strokeColor=inherit;fillColor=inherit;align=center;whiteSpace=wrap;html=1;" vertex="1" parent="ZukCDp1NpsssW5DUEXsI-32">
          <mxGeometry x="107" width="108" height="102" as="geometry">
            <mxRectangle width="108" height="102" as="alternateBounds" />
          </mxGeometry>
        </mxCell>
        <mxCell id="ZukCDp1NpsssW5DUEXsI-35" value="Value 3" style="connectable=0;recursiveResize=0;strokeColor=inherit;fillColor=inherit;align=center;whiteSpace=wrap;html=1;" vertex="1" parent="ZukCDp1NpsssW5DUEXsI-32">
          <mxGeometry x="215" width="107" height="102" as="geometry">
            <mxRectangle width="107" height="102" as="alternateBounds" />
          </mxGeometry>
        </mxCell>
        <mxCell id="ZukCDp1NpsssW5DUEXsI-152" value="Value 1&lt;br&gt;" style="connectable=0;recursiveResize=0;strokeColor=inherit;fillColor=inherit;align=center;whiteSpace=wrap;html=1;" vertex="1" parent="ZukCDp1NpsssW5DUEXsI-32">
          <mxGeometry x="322" width="107" height="102" as="geometry">
            <mxRectangle width="107" height="102" as="alternateBounds" />
          </mxGeometry>
        </mxCell>
        <mxCell id="ZukCDp1NpsssW5DUEXsI-147" value="&#xa;&lt;br style=&quot;border-color: var(--border-color); color: rgb(0, 0, 0); font-family: Helvetica; font-size: 12px; font-style: normal; font-variant-ligatures: normal; font-variant-caps: normal; font-weight: 400; letter-spacing: normal; orphans: 2; text-align: center; text-indent: 0px; text-transform: none; widows: 2; word-spacing: 0px; -webkit-text-stroke-width: 0px; background-color: rgb(251, 251, 251); text-decoration-thickness: initial; text-decoration-style: initial; text-decoration-color: initial;&quot;&gt;&lt;span style=&quot;border-color: var(--border-color); color: rgb(0, 0, 0); font-family: Helvetica; font-size: 12px; font-style: normal; font-variant-ligatures: normal; font-variant-caps: normal; font-weight: 400; letter-spacing: normal; orphans: 2; text-align: center; text-indent: 0px; text-transform: none; widows: 2; word-spacing: 0px; -webkit-text-stroke-width: 0px; text-decoration-thickness: initial; text-decoration-style: initial; text-decoration-color: initial; background-color: rgb(251, 251, 251); float: none; display: inline !important;&quot;&gt;Value 1&lt;/span&gt;&lt;br style=&quot;border-color: var(--border-color); color: rgb(0, 0, 0); font-family: Helvetica; font-size: 12px; font-style: normal; font-variant-ligatures: normal; font-variant-caps: normal; font-weight: 400; letter-spacing: normal; orphans: 2; text-align: center; text-indent: 0px; text-transform: none; widows: 2; word-spacing: 0px; -webkit-text-stroke-width: 0px; background-color: rgb(251, 251, 251); text-decoration-thickness: initial; text-decoration-style: initial; text-decoration-color: initial;&quot;&gt;&#xa;&#xa;" style="connectable=0;recursiveResize=0;strokeColor=inherit;fillColor=inherit;align=center;whiteSpace=wrap;html=1;" vertex="1" parent="ZukCDp1NpsssW5DUEXsI-32">
          <mxGeometry x="429" width="107" height="102" as="geometry">
            <mxRectangle width="107" height="102" as="alternateBounds" />
          </mxGeometry>
        </mxCell>
        <mxCell id="ZukCDp1NpsssW5DUEXsI-142" value="&#xa;&lt;br style=&quot;border-color: var(--border-color); color: rgb(0, 0, 0); font-family: Helvetica; font-size: 12px; font-style: normal; font-variant-ligatures: normal; font-variant-caps: normal; font-weight: 400; letter-spacing: normal; orphans: 2; text-align: center; text-indent: 0px; text-transform: none; widows: 2; word-spacing: 0px; -webkit-text-stroke-width: 0px; background-color: rgb(251, 251, 251); text-decoration-thickness: initial; text-decoration-style: initial; text-decoration-color: initial;&quot;&gt;&lt;span style=&quot;border-color: var(--border-color); color: rgb(0, 0, 0); font-family: Helvetica; font-size: 12px; font-style: normal; font-variant-ligatures: normal; font-variant-caps: normal; font-weight: 400; letter-spacing: normal; orphans: 2; text-align: center; text-indent: 0px; text-transform: none; widows: 2; word-spacing: 0px; -webkit-text-stroke-width: 0px; text-decoration-thickness: initial; text-decoration-style: initial; text-decoration-color: initial; background-color: rgb(251, 251, 251); float: none; display: inline !important;&quot;&gt;Value 1&lt;/span&gt;&lt;br style=&quot;border-color: var(--border-color); color: rgb(0, 0, 0); font-family: Helvetica; font-size: 12px; font-style: normal; font-variant-ligatures: normal; font-variant-caps: normal; font-weight: 400; letter-spacing: normal; orphans: 2; text-align: center; text-indent: 0px; text-transform: none; widows: 2; word-spacing: 0px; -webkit-text-stroke-width: 0px; background-color: rgb(251, 251, 251); text-decoration-thickness: initial; text-decoration-style: initial; text-decoration-color: initial;&quot;&gt;&#xa;&#xa;" style="connectable=0;recursiveResize=0;strokeColor=inherit;fillColor=inherit;align=center;whiteSpace=wrap;html=1;" vertex="1" parent="ZukCDp1NpsssW5DUEXsI-32">
          <mxGeometry x="536" width="107" height="102" as="geometry">
            <mxRectangle width="107" height="102" as="alternateBounds" />
          </mxGeometry>
        </mxCell>
        <mxCell id="ZukCDp1NpsssW5DUEXsI-137" value="&#xa;&lt;br style=&quot;border-color: var(--border-color); color: rgb(0, 0, 0); font-family: Helvetica; font-size: 12px; font-style: normal; font-variant-ligatures: normal; font-variant-caps: normal; font-weight: 400; letter-spacing: normal; orphans: 2; text-align: center; text-indent: 0px; text-transform: none; widows: 2; word-spacing: 0px; -webkit-text-stroke-width: 0px; background-color: rgb(251, 251, 251); text-decoration-thickness: initial; text-decoration-style: initial; text-decoration-color: initial;&quot;&gt;&lt;span style=&quot;border-color: var(--border-color); color: rgb(0, 0, 0); font-family: Helvetica; font-size: 12px; font-style: normal; font-variant-ligatures: normal; font-variant-caps: normal; font-weight: 400; letter-spacing: normal; orphans: 2; text-align: center; text-indent: 0px; text-transform: none; widows: 2; word-spacing: 0px; -webkit-text-stroke-width: 0px; text-decoration-thickness: initial; text-decoration-style: initial; text-decoration-color: initial; background-color: rgb(251, 251, 251); float: none; display: inline !important;&quot;&gt;Value 1&lt;/span&gt;&lt;br style=&quot;border-color: var(--border-color); color: rgb(0, 0, 0); font-family: Helvetica; font-size: 12px; font-style: normal; font-variant-ligatures: normal; font-variant-caps: normal; font-weight: 400; letter-spacing: normal; orphans: 2; text-align: center; text-indent: 0px; text-transform: none; widows: 2; word-spacing: 0px; -webkit-text-stroke-width: 0px; background-color: rgb(251, 251, 251); text-decoration-thickness: initial; text-decoration-style: initial; text-decoration-color: initial;&quot;&gt;&#xa;&#xa;" style="connectable=0;recursiveResize=0;strokeColor=inherit;fillColor=inherit;align=center;whiteSpace=wrap;html=1;" vertex="1" parent="ZukCDp1NpsssW5DUEXsI-32">
          <mxGeometry x="643" width="107" height="102" as="geometry">
            <mxRectangle width="107" height="102" as="alternateBounds" />
          </mxGeometry>
        </mxCell>
        <mxCell id="ZukCDp1NpsssW5DUEXsI-132" value="&#xa;&lt;br style=&quot;border-color: var(--border-color); color: rgb(0, 0, 0); font-family: Helvetica; font-size: 12px; font-style: normal; font-variant-ligatures: normal; font-variant-caps: normal; font-weight: 400; letter-spacing: normal; orphans: 2; text-align: center; text-indent: 0px; text-transform: none; widows: 2; word-spacing: 0px; -webkit-text-stroke-width: 0px; background-color: rgb(251, 251, 251); text-decoration-thickness: initial; text-decoration-style: initial; text-decoration-color: initial;&quot;&gt;&lt;span style=&quot;border-color: var(--border-color); color: rgb(0, 0, 0); font-family: Helvetica; font-size: 12px; font-style: normal; font-variant-ligatures: normal; font-variant-caps: normal; font-weight: 400; letter-spacing: normal; orphans: 2; text-align: center; text-indent: 0px; text-transform: none; widows: 2; word-spacing: 0px; -webkit-text-stroke-width: 0px; text-decoration-thickness: initial; text-decoration-style: initial; text-decoration-color: initial; background-color: rgb(251, 251, 251); float: none; display: inline !important;&quot;&gt;Value 1&lt;/span&gt;&lt;br style=&quot;border-color: var(--border-color); color: rgb(0, 0, 0); font-family: Helvetica; font-size: 12px; font-style: normal; font-variant-ligatures: normal; font-variant-caps: normal; font-weight: 400; letter-spacing: normal; orphans: 2; text-align: center; text-indent: 0px; text-transform: none; widows: 2; word-spacing: 0px; -webkit-text-stroke-width: 0px; background-color: rgb(251, 251, 251); text-decoration-thickness: initial; text-decoration-style: initial; text-decoration-color: initial;&quot;&gt;&#xa;&#xa;" style="connectable=0;recursiveResize=0;strokeColor=inherit;fillColor=inherit;align=center;whiteSpace=wrap;html=1;" vertex="1" parent="ZukCDp1NpsssW5DUEXsI-32">
          <mxGeometry x="750" width="107" height="102" as="geometry">
            <mxRectangle width="107" height="102" as="alternateBounds" />
          </mxGeometry>
        </mxCell>
        <mxCell id="ZukCDp1NpsssW5DUEXsI-127" value="&#xa;&lt;br style=&quot;border-color: var(--border-color); color: rgb(0, 0, 0); font-family: Helvetica; font-size: 12px; font-style: normal; font-variant-ligatures: normal; font-variant-caps: normal; font-weight: 400; letter-spacing: normal; orphans: 2; text-align: center; text-indent: 0px; text-transform: none; widows: 2; word-spacing: 0px; -webkit-text-stroke-width: 0px; background-color: rgb(251, 251, 251); text-decoration-thickness: initial; text-decoration-style: initial; text-decoration-color: initial;&quot;&gt;&lt;span style=&quot;border-color: var(--border-color); color: rgb(0, 0, 0); font-family: Helvetica; font-size: 12px; font-style: normal; font-variant-ligatures: normal; font-variant-caps: normal; font-weight: 400; letter-spacing: normal; orphans: 2; text-align: center; text-indent: 0px; text-transform: none; widows: 2; word-spacing: 0px; -webkit-text-stroke-width: 0px; text-decoration-thickness: initial; text-decoration-style: initial; text-decoration-color: initial; background-color: rgb(251, 251, 251); float: none; display: inline !important;&quot;&gt;Value 1&lt;/span&gt;&lt;br style=&quot;border-color: var(--border-color); color: rgb(0, 0, 0); font-family: Helvetica; font-size: 12px; font-style: normal; font-variant-ligatures: normal; font-variant-caps: normal; font-weight: 400; letter-spacing: normal; orphans: 2; text-align: center; text-indent: 0px; text-transform: none; widows: 2; word-spacing: 0px; -webkit-text-stroke-width: 0px; background-color: rgb(251, 251, 251); text-decoration-thickness: initial; text-decoration-style: initial; text-decoration-color: initial;&quot;&gt;&#xa;&#xa;" style="connectable=0;recursiveResize=0;strokeColor=inherit;fillColor=inherit;align=center;whiteSpace=wrap;html=1;" vertex="1" parent="ZukCDp1NpsssW5DUEXsI-32">
          <mxGeometry x="857" width="107" height="102" as="geometry">
            <mxRectangle width="107" height="102" as="alternateBounds" />
          </mxGeometry>
        </mxCell>
        <mxCell id="ZukCDp1NpsssW5DUEXsI-122" value="&#xa;&lt;br style=&quot;border-color: var(--border-color); color: rgb(0, 0, 0); font-family: Helvetica; font-size: 12px; font-style: normal; font-variant-ligatures: normal; font-variant-caps: normal; font-weight: 400; letter-spacing: normal; orphans: 2; text-align: center; text-indent: 0px; text-transform: none; widows: 2; word-spacing: 0px; -webkit-text-stroke-width: 0px; background-color: rgb(251, 251, 251); text-decoration-thickness: initial; text-decoration-style: initial; text-decoration-color: initial;&quot;&gt;&lt;span style=&quot;border-color: var(--border-color); color: rgb(0, 0, 0); font-family: Helvetica; font-size: 12px; font-style: normal; font-variant-ligatures: normal; font-variant-caps: normal; font-weight: 400; letter-spacing: normal; orphans: 2; text-align: center; text-indent: 0px; text-transform: none; widows: 2; word-spacing: 0px; -webkit-text-stroke-width: 0px; text-decoration-thickness: initial; text-decoration-style: initial; text-decoration-color: initial; background-color: rgb(251, 251, 251); float: none; display: inline !important;&quot;&gt;Value 1&lt;/span&gt;&lt;br style=&quot;border-color: var(--border-color); color: rgb(0, 0, 0); font-family: Helvetica; font-size: 12px; font-style: normal; font-variant-ligatures: normal; font-variant-caps: normal; font-weight: 400; letter-spacing: normal; orphans: 2; text-align: center; text-indent: 0px; text-transform: none; widows: 2; word-spacing: 0px; -webkit-text-stroke-width: 0px; background-color: rgb(251, 251, 251); text-decoration-thickness: initial; text-decoration-style: initial; text-decoration-color: initial;&quot;&gt;&#xa;&#xa;" style="connectable=0;recursiveResize=0;strokeColor=inherit;fillColor=inherit;align=center;whiteSpace=wrap;html=1;" vertex="1" parent="ZukCDp1NpsssW5DUEXsI-32">
          <mxGeometry x="964" width="107" height="102" as="geometry">
            <mxRectangle width="107" height="102" as="alternateBounds" />
          </mxGeometry>
        </mxCell>
        <mxCell id="ZukCDp1NpsssW5DUEXsI-36" value="" style="shape=tableRow;horizontal=0;startSize=0;swimlaneHead=0;swimlaneBody=0;top=0;left=0;bottom=0;right=0;dropTarget=0;collapsible=0;recursiveResize=0;expand=0;fontStyle=1;strokeColor=inherit;fillColor=#EAF2D3;" vertex="1" parent="ZukCDp1NpsssW5DUEXsI-27">
          <mxGeometry y="160" width="1071.33" height="100" as="geometry" />
        </mxCell>
        <mxCell id="ZukCDp1NpsssW5DUEXsI-37" value="Value 4" style="connectable=0;recursiveResize=0;strokeColor=inherit;fillColor=inherit;whiteSpace=wrap;html=1;" vertex="1" parent="ZukCDp1NpsssW5DUEXsI-36">
          <mxGeometry width="107" height="100" as="geometry">
            <mxRectangle width="107" height="100" as="alternateBounds" />
          </mxGeometry>
        </mxCell>
        <mxCell id="ZukCDp1NpsssW5DUEXsI-38" value="Value 5" style="connectable=0;recursiveResize=0;strokeColor=inherit;fillColor=inherit;whiteSpace=wrap;html=1;" vertex="1" parent="ZukCDp1NpsssW5DUEXsI-36">
          <mxGeometry x="107" width="108" height="100" as="geometry">
            <mxRectangle width="108" height="100" as="alternateBounds" />
          </mxGeometry>
        </mxCell>
        <mxCell id="ZukCDp1NpsssW5DUEXsI-39" value="Value 6" style="connectable=0;recursiveResize=0;strokeColor=inherit;fillColor=inherit;whiteSpace=wrap;html=1;" vertex="1" parent="ZukCDp1NpsssW5DUEXsI-36">
          <mxGeometry x="215" width="107" height="100" as="geometry">
            <mxRectangle width="107" height="100" as="alternateBounds" />
          </mxGeometry>
        </mxCell>
        <mxCell id="ZukCDp1NpsssW5DUEXsI-153" value="Value 6" style="connectable=0;recursiveResize=0;strokeColor=inherit;fillColor=inherit;whiteSpace=wrap;html=1;" vertex="1" parent="ZukCDp1NpsssW5DUEXsI-36">
          <mxGeometry x="322" width="107" height="100" as="geometry">
            <mxRectangle width="107" height="100" as="alternateBounds" />
          </mxGeometry>
        </mxCell>
        <mxCell id="ZukCDp1NpsssW5DUEXsI-148" value="Value 6" style="connectable=0;recursiveResize=0;strokeColor=inherit;fillColor=inherit;whiteSpace=wrap;html=1;" vertex="1" parent="ZukCDp1NpsssW5DUEXsI-36">
          <mxGeometry x="429" width="107" height="100" as="geometry">
            <mxRectangle width="107" height="100" as="alternateBounds" />
          </mxGeometry>
        </mxCell>
        <mxCell id="ZukCDp1NpsssW5DUEXsI-143" value="Value 6" style="connectable=0;recursiveResize=0;strokeColor=inherit;fillColor=inherit;whiteSpace=wrap;html=1;" vertex="1" parent="ZukCDp1NpsssW5DUEXsI-36">
          <mxGeometry x="536" width="107" height="100" as="geometry">
            <mxRectangle width="107" height="100" as="alternateBounds" />
          </mxGeometry>
        </mxCell>
        <mxCell id="ZukCDp1NpsssW5DUEXsI-138" value="Value 6" style="connectable=0;recursiveResize=0;strokeColor=inherit;fillColor=inherit;whiteSpace=wrap;html=1;" vertex="1" parent="ZukCDp1NpsssW5DUEXsI-36">
          <mxGeometry x="643" width="107" height="100" as="geometry">
            <mxRectangle width="107" height="100" as="alternateBounds" />
          </mxGeometry>
        </mxCell>
        <mxCell id="ZukCDp1NpsssW5DUEXsI-133" value="Value 6" style="connectable=0;recursiveResize=0;strokeColor=inherit;fillColor=inherit;whiteSpace=wrap;html=1;" vertex="1" parent="ZukCDp1NpsssW5DUEXsI-36">
          <mxGeometry x="750" width="107" height="100" as="geometry">
            <mxRectangle width="107" height="100" as="alternateBounds" />
          </mxGeometry>
        </mxCell>
        <mxCell id="ZukCDp1NpsssW5DUEXsI-128" value="Value 6" style="connectable=0;recursiveResize=0;strokeColor=inherit;fillColor=inherit;whiteSpace=wrap;html=1;" vertex="1" parent="ZukCDp1NpsssW5DUEXsI-36">
          <mxGeometry x="857" width="107" height="100" as="geometry">
            <mxRectangle width="107" height="100" as="alternateBounds" />
          </mxGeometry>
        </mxCell>
        <mxCell id="ZukCDp1NpsssW5DUEXsI-123" value="Value 6" style="connectable=0;recursiveResize=0;strokeColor=inherit;fillColor=inherit;whiteSpace=wrap;html=1;" vertex="1" parent="ZukCDp1NpsssW5DUEXsI-36">
          <mxGeometry x="964" width="107" height="100" as="geometry">
            <mxRectangle width="107" height="100" as="alternateBounds" />
          </mxGeometry>
        </mxCell>
        <mxCell id="ZukCDp1NpsssW5DUEXsI-40" value="" style="shape=tableRow;horizontal=0;startSize=0;swimlaneHead=0;swimlaneBody=0;top=0;left=0;bottom=0;right=0;dropTarget=0;collapsible=0;recursiveResize=0;expand=0;fontStyle=0;strokeColor=inherit;fillColor=#ffffff;" vertex="1" parent="ZukCDp1NpsssW5DUEXsI-27">
          <mxGeometry y="260" width="1071.33" height="92" as="geometry" />
        </mxCell>
        <mxCell id="ZukCDp1NpsssW5DUEXsI-41" value="Value 7" style="connectable=0;recursiveResize=0;strokeColor=inherit;fillColor=inherit;fontStyle=0;align=center;whiteSpace=wrap;html=1;" vertex="1" parent="ZukCDp1NpsssW5DUEXsI-40">
          <mxGeometry width="107" height="92" as="geometry">
            <mxRectangle width="107" height="92" as="alternateBounds" />
          </mxGeometry>
        </mxCell>
        <mxCell id="ZukCDp1NpsssW5DUEXsI-42" value="Value 8" style="connectable=0;recursiveResize=0;strokeColor=inherit;fillColor=inherit;fontStyle=0;align=center;whiteSpace=wrap;html=1;" vertex="1" parent="ZukCDp1NpsssW5DUEXsI-40">
          <mxGeometry x="107" width="108" height="92" as="geometry">
            <mxRectangle width="108" height="92" as="alternateBounds" />
          </mxGeometry>
        </mxCell>
        <mxCell id="ZukCDp1NpsssW5DUEXsI-43" value="Value 9" style="connectable=0;recursiveResize=0;strokeColor=inherit;fillColor=inherit;fontStyle=0;align=center;whiteSpace=wrap;html=1;" vertex="1" parent="ZukCDp1NpsssW5DUEXsI-40">
          <mxGeometry x="215" width="107" height="92" as="geometry">
            <mxRectangle width="107" height="92" as="alternateBounds" />
          </mxGeometry>
        </mxCell>
        <mxCell id="ZukCDp1NpsssW5DUEXsI-154" value="&#xa;&lt;span style=&quot;color: rgb(0, 0, 0); font-family: Helvetica; font-size: 12px; font-style: normal; font-variant-ligatures: normal; font-variant-caps: normal; font-weight: 400; letter-spacing: normal; orphans: 2; text-align: center; text-indent: 0px; text-transform: none; widows: 2; word-spacing: 0px; -webkit-text-stroke-width: 0px; background-color: rgb(251, 251, 251); text-decoration-thickness: initial; text-decoration-style: initial; text-decoration-color: initial; float: none; display: inline !important;&quot;&gt;Value 1&lt;/span&gt;&#xa;&#xa;" style="connectable=0;recursiveResize=0;strokeColor=inherit;fillColor=inherit;fontStyle=0;align=center;whiteSpace=wrap;html=1;" vertex="1" parent="ZukCDp1NpsssW5DUEXsI-40">
          <mxGeometry x="322" width="107" height="92" as="geometry">
            <mxRectangle width="107" height="92" as="alternateBounds" />
          </mxGeometry>
        </mxCell>
        <mxCell id="ZukCDp1NpsssW5DUEXsI-149" value="&#xa;&lt;span style=&quot;color: rgb(0, 0, 0); font-family: Helvetica; font-size: 12px; font-style: normal; font-variant-ligatures: normal; font-variant-caps: normal; font-weight: 400; letter-spacing: normal; orphans: 2; text-align: center; text-indent: 0px; text-transform: none; widows: 2; word-spacing: 0px; -webkit-text-stroke-width: 0px; background-color: rgb(251, 251, 251); text-decoration-thickness: initial; text-decoration-style: initial; text-decoration-color: initial; float: none; display: inline !important;&quot;&gt;Value 1&lt;/span&gt;&#xa;&#xa;" style="connectable=0;recursiveResize=0;strokeColor=inherit;fillColor=inherit;fontStyle=0;align=center;whiteSpace=wrap;html=1;" vertex="1" parent="ZukCDp1NpsssW5DUEXsI-40">
          <mxGeometry x="429" width="107" height="92" as="geometry">
            <mxRectangle width="107" height="92" as="alternateBounds" />
          </mxGeometry>
        </mxCell>
        <mxCell id="ZukCDp1NpsssW5DUEXsI-144" value="&#xa;&lt;span style=&quot;color: rgb(0, 0, 0); font-family: Helvetica; font-size: 12px; font-style: normal; font-variant-ligatures: normal; font-variant-caps: normal; font-weight: 400; letter-spacing: normal; orphans: 2; text-align: center; text-indent: 0px; text-transform: none; widows: 2; word-spacing: 0px; -webkit-text-stroke-width: 0px; background-color: rgb(251, 251, 251); text-decoration-thickness: initial; text-decoration-style: initial; text-decoration-color: initial; float: none; display: inline !important;&quot;&gt;Value 1&lt;/span&gt;&#xa;&#xa;" style="connectable=0;recursiveResize=0;strokeColor=inherit;fillColor=inherit;fontStyle=0;align=center;whiteSpace=wrap;html=1;" vertex="1" parent="ZukCDp1NpsssW5DUEXsI-40">
          <mxGeometry x="536" width="107" height="92" as="geometry">
            <mxRectangle width="107" height="92" as="alternateBounds" />
          </mxGeometry>
        </mxCell>
        <mxCell id="ZukCDp1NpsssW5DUEXsI-139" value="&#xa;&lt;span style=&quot;color: rgb(0, 0, 0); font-family: Helvetica; font-size: 12px; font-style: normal; font-variant-ligatures: normal; font-variant-caps: normal; font-weight: 400; letter-spacing: normal; orphans: 2; text-align: center; text-indent: 0px; text-transform: none; widows: 2; word-spacing: 0px; -webkit-text-stroke-width: 0px; background-color: rgb(251, 251, 251); text-decoration-thickness: initial; text-decoration-style: initial; text-decoration-color: initial; float: none; display: inline !important;&quot;&gt;Value 1&lt;/span&gt;&#xa;&#xa;" style="connectable=0;recursiveResize=0;strokeColor=inherit;fillColor=inherit;fontStyle=0;align=center;whiteSpace=wrap;html=1;" vertex="1" parent="ZukCDp1NpsssW5DUEXsI-40">
          <mxGeometry x="643" width="107" height="92" as="geometry">
            <mxRectangle width="107" height="92" as="alternateBounds" />
          </mxGeometry>
        </mxCell>
        <mxCell id="ZukCDp1NpsssW5DUEXsI-134" value="&#xa;&lt;span style=&quot;color: rgb(0, 0, 0); font-family: Helvetica; font-size: 12px; font-style: normal; font-variant-ligatures: normal; font-variant-caps: normal; font-weight: 400; letter-spacing: normal; orphans: 2; text-align: center; text-indent: 0px; text-transform: none; widows: 2; word-spacing: 0px; -webkit-text-stroke-width: 0px; background-color: rgb(251, 251, 251); text-decoration-thickness: initial; text-decoration-style: initial; text-decoration-color: initial; float: none; display: inline !important;&quot;&gt;Value 1&lt;/span&gt;&#xa;&#xa;" style="connectable=0;recursiveResize=0;strokeColor=inherit;fillColor=inherit;fontStyle=0;align=center;whiteSpace=wrap;html=1;" vertex="1" parent="ZukCDp1NpsssW5DUEXsI-40">
          <mxGeometry x="750" width="107" height="92" as="geometry">
            <mxRectangle width="107" height="92" as="alternateBounds" />
          </mxGeometry>
        </mxCell>
        <mxCell id="ZukCDp1NpsssW5DUEXsI-129" value="&#xa;&lt;span style=&quot;color: rgb(0, 0, 0); font-family: Helvetica; font-size: 12px; font-style: normal; font-variant-ligatures: normal; font-variant-caps: normal; font-weight: 400; letter-spacing: normal; orphans: 2; text-align: center; text-indent: 0px; text-transform: none; widows: 2; word-spacing: 0px; -webkit-text-stroke-width: 0px; background-color: rgb(251, 251, 251); text-decoration-thickness: initial; text-decoration-style: initial; text-decoration-color: initial; float: none; display: inline !important;&quot;&gt;Value 1&lt;/span&gt;&#xa;&#xa;" style="connectable=0;recursiveResize=0;strokeColor=inherit;fillColor=inherit;fontStyle=0;align=center;whiteSpace=wrap;html=1;" vertex="1" parent="ZukCDp1NpsssW5DUEXsI-40">
          <mxGeometry x="857" width="107" height="92" as="geometry">
            <mxRectangle width="107" height="92" as="alternateBounds" />
          </mxGeometry>
        </mxCell>
        <mxCell id="ZukCDp1NpsssW5DUEXsI-124" value="&#xa;&lt;span style=&quot;color: rgb(0, 0, 0); font-family: Helvetica; font-size: 12px; font-style: normal; font-variant-ligatures: normal; font-variant-caps: normal; font-weight: 400; letter-spacing: normal; orphans: 2; text-align: center; text-indent: 0px; text-transform: none; widows: 2; word-spacing: 0px; -webkit-text-stroke-width: 0px; background-color: rgb(251, 251, 251); text-decoration-thickness: initial; text-decoration-style: initial; text-decoration-color: initial; float: none; display: inline !important;&quot;&gt;Value 1&lt;/span&gt;&#xa;&#xa;" style="connectable=0;recursiveResize=0;strokeColor=inherit;fillColor=inherit;fontStyle=0;align=center;whiteSpace=wrap;html=1;" vertex="1" parent="ZukCDp1NpsssW5DUEXsI-40">
          <mxGeometry x="964" width="107" height="92" as="geometry">
            <mxRectangle width="107" height="92" as="alternateBounds" />
          </mxGeometry>
        </mxCell>
        <mxCell id="ZukCDp1NpsssW5DUEXsI-44" value="" style="shape=tableRow;horizontal=0;startSize=0;swimlaneHead=0;swimlaneBody=0;top=0;left=0;bottom=0;right=0;dropTarget=0;collapsible=0;recursiveResize=0;expand=0;fontStyle=1;strokeColor=inherit;fillColor=#EAF2D3;" vertex="1" parent="ZukCDp1NpsssW5DUEXsI-27">
          <mxGeometry y="352" width="1071.33" height="100" as="geometry" />
        </mxCell>
        <mxCell id="ZukCDp1NpsssW5DUEXsI-45" value="Value 10" style="connectable=0;recursiveResize=0;strokeColor=inherit;fillColor=inherit;whiteSpace=wrap;html=1;" vertex="1" parent="ZukCDp1NpsssW5DUEXsI-44">
          <mxGeometry width="107" height="100" as="geometry">
            <mxRectangle width="107" height="100" as="alternateBounds" />
          </mxGeometry>
        </mxCell>
        <mxCell id="ZukCDp1NpsssW5DUEXsI-46" value="Value 11" style="connectable=0;recursiveResize=0;strokeColor=inherit;fillColor=inherit;whiteSpace=wrap;html=1;" vertex="1" parent="ZukCDp1NpsssW5DUEXsI-44">
          <mxGeometry x="107" width="108" height="100" as="geometry">
            <mxRectangle width="108" height="100" as="alternateBounds" />
          </mxGeometry>
        </mxCell>
        <mxCell id="ZukCDp1NpsssW5DUEXsI-47" value="Value 12" style="connectable=0;recursiveResize=0;strokeColor=inherit;fillColor=inherit;whiteSpace=wrap;html=1;" vertex="1" parent="ZukCDp1NpsssW5DUEXsI-44">
          <mxGeometry x="215" width="107" height="100" as="geometry">
            <mxRectangle width="107" height="100" as="alternateBounds" />
          </mxGeometry>
        </mxCell>
        <mxCell id="ZukCDp1NpsssW5DUEXsI-155" value="Value 6" style="connectable=0;recursiveResize=0;strokeColor=inherit;fillColor=inherit;whiteSpace=wrap;html=1;" vertex="1" parent="ZukCDp1NpsssW5DUEXsI-44">
          <mxGeometry x="322" width="107" height="100" as="geometry">
            <mxRectangle width="107" height="100" as="alternateBounds" />
          </mxGeometry>
        </mxCell>
        <mxCell id="ZukCDp1NpsssW5DUEXsI-150" value="Value 6" style="connectable=0;recursiveResize=0;strokeColor=inherit;fillColor=inherit;whiteSpace=wrap;html=1;" vertex="1" parent="ZukCDp1NpsssW5DUEXsI-44">
          <mxGeometry x="429" width="107" height="100" as="geometry">
            <mxRectangle width="107" height="100" as="alternateBounds" />
          </mxGeometry>
        </mxCell>
        <mxCell id="ZukCDp1NpsssW5DUEXsI-145" value="Value 6" style="connectable=0;recursiveResize=0;strokeColor=inherit;fillColor=inherit;whiteSpace=wrap;html=1;" vertex="1" parent="ZukCDp1NpsssW5DUEXsI-44">
          <mxGeometry x="536" width="107" height="100" as="geometry">
            <mxRectangle width="107" height="100" as="alternateBounds" />
          </mxGeometry>
        </mxCell>
        <mxCell id="ZukCDp1NpsssW5DUEXsI-140" value="Value 6" style="connectable=0;recursiveResize=0;strokeColor=inherit;fillColor=inherit;whiteSpace=wrap;html=1;" vertex="1" parent="ZukCDp1NpsssW5DUEXsI-44">
          <mxGeometry x="643" width="107" height="100" as="geometry">
            <mxRectangle width="107" height="100" as="alternateBounds" />
          </mxGeometry>
        </mxCell>
        <mxCell id="ZukCDp1NpsssW5DUEXsI-135" value="Value 6" style="connectable=0;recursiveResize=0;strokeColor=inherit;fillColor=inherit;whiteSpace=wrap;html=1;" vertex="1" parent="ZukCDp1NpsssW5DUEXsI-44">
          <mxGeometry x="750" width="107" height="100" as="geometry">
            <mxRectangle width="107" height="100" as="alternateBounds" />
          </mxGeometry>
        </mxCell>
        <mxCell id="ZukCDp1NpsssW5DUEXsI-130" value="Value 6" style="connectable=0;recursiveResize=0;strokeColor=inherit;fillColor=inherit;whiteSpace=wrap;html=1;" vertex="1" parent="ZukCDp1NpsssW5DUEXsI-44">
          <mxGeometry x="857" width="107" height="100" as="geometry">
            <mxRectangle width="107" height="100" as="alternateBounds" />
          </mxGeometry>
        </mxCell>
        <mxCell id="ZukCDp1NpsssW5DUEXsI-125" value="Value 6" style="connectable=0;recursiveResize=0;strokeColor=inherit;fillColor=inherit;whiteSpace=wrap;html=1;" vertex="1" parent="ZukCDp1NpsssW5DUEXsI-44">
          <mxGeometry x="964" width="107" height="100" as="geometry">
            <mxRectangle width="107" height="100" as="alternateBounds" />
          </mxGeometry>
        </mxCell>
      </root>
    </mxGraphModel>
  </diagram>
</mxfile>
